<svg xmlns="http://www.w3.org/2000/svg" viewBox="0 0 64 64" role="img" aria-label="TikTok">
  <rect width="64" height="64" rx="14" fill="#111"/>
  <path d="M36 18c2 6 6 10 12 11v8c-5-.2-9-2-12-5v12c0 9-7 16-16 16S4 53 4 44s7-16 16-16c1.2 0 2.3.1 3.4.4v8a8 8 0 1 0 4.6 7.2V10h8v8z" fill="#25f4ee"/>
  <path d="M40 16c2 6 6 10 12 11v4c-5-.2-9-2-12-5v14c0 9-7 16-16 16-3.4 0-6.5-1.1-9.1-2.9A16 16 0 0 0 36 44V16h4z" fill="#fe2c55" opacity=".75"/>
  <path d="M36 18c2 6 6 10 12 11v8c-5-.2-9-2-12-5v12c0 9-7 16-16 16S4 53 4 44s7-16 16-16c1.2 0 2.3.1 3.4.4v8a8 8 0 1 0 4.6 7.2V10h8v8z" fill="#fff"/>
</svg>
